# xmcd
#
# Track frame offsets:
#	150
#	27085
#	38266
#	69627
#	86412
#	102199
#	125199
#	145599
#	164716
#	191268
#
# Disc length: 2948 seconds
#
# Revision: 0
# Processed by: cddbd v1.5PL3 Copyright (c) Steve Scherf et al.
# Submitted via: audiograbber 1.82.02
#
DISCID=7d0b820a
DTITLE=Al Jarreau - Sophisticated Lady
DYEAR=2000
DGENRE=Jazz
TTITLE0=A Sleepin' Bee
TTITLE1=Call Me
TTITLE2=Come Rain Or Shine
TTITLE3=Joey
TTITLE4=Let's Get Married
TTITLE5=My Favourite Things
TTITLE6=One Note Samba
TTITLE7=Sophisticated Lady
TTITLE8=Stockholm Sweetnin'
TTITLE9=The Masquerade Is Over
EXTD=
EXTT0=
EXTT1=
EXTT2=
EXTT3=
EXTT4=
EXTT5=
EXTT6=
EXTT7=
EXTT8=
EXTT9=
PLAYORDER=
